<svg version="1.1" id="Layer_1" xmlns="http://www.w3.org/2000/svg" xmlns:xlink="http://www.w3.org/1999/xlink" x="0px" y="0px"
	 width="100%" viewBox="0 0 496 496" enable-background="new 0 0 496 496" xml:space="preserve">
<path fill="#000000" opacity="1.000000" stroke="none" 
	d="
M129.385071,385.922424 
	C110.086647,379.047302 97.994774,362.241913 97.782234,341.955505 
	C97.612915,325.794586 97.617004,309.629456 97.786118,293.468719 
	C97.848656,287.492340 95.727806,282.882416 91.257957,279.042175 
	C85.319847,273.940460 79.486732,268.713013 73.702522,263.436523 
	C65.185677,255.667282 65.355179,245.346176 74.262329,238.041046 
	C79.539673,233.712891 85.078796,229.697098 90.587273,225.659622 
	C95.526024,222.039764 97.872246,217.423004 97.798454,211.166412 
	C97.600006,194.339691 97.706329,177.508942 97.747665,160.679932 
	C97.816643,132.598007 119.751633,112.073639 147.829086,113.612000 
	C151.061264,113.789093 152.279175,115.008011 152.245865,118.120110 
	C152.172760,124.950783 151.970688,131.797211 152.335083,138.609726 
	C152.602768,143.614197 150.925446,145.378983 145.831909,145.275604 
	C136.885742,145.094040 131.772049,148.702652 129.878204,155.841537 
	C129.376053,157.734406 129.345367,159.789719 129.340149,161.771103 
	C129.298828,177.433731 129.093399,193.100525 129.376251,208.758133 
	C129.675247,225.308731 124.064011,239.012482 111.220657,249.627121 
	C110.358727,250.339462 109.172554,250.830872 108.955009,252.158340 
	C109.239967,253.616974 110.466766,254.306839 111.461151,255.135284 
	C123.805992,265.420166 129.438812,278.689606 129.338974,294.639008 
	C129.241974,310.134430 129.293381,325.631165 129.349030,341.127075 
	C129.383606,350.754517 135.203659,356.574249 144.876663,356.824005 
	C152.248154,357.014343 152.255676,357.014343 152.260849,364.392059 
	C152.265396,370.890411 152.169983,377.390076 152.279404,383.886505 
	C152.331665,386.990173 151.285172,388.383270 147.966797,388.403351 
	C141.768906,388.440857 135.650360,388.238037 129.385071,385.922424 
z"/>
<path fill="#000000" opacity="1.000000" stroke="none" 
	d="
M407.162231,183.000000 
	C407.176056,193.330963 407.263306,203.162613 407.173370,212.992630 
	C407.124786,218.301697 409.355591,222.178543 413.601013,225.230957 
	C419.145416,229.217346 424.573029,233.368759 429.995148,237.521988 
	C439.388092,244.716797 439.867950,255.620331 431.103638,263.598846 
	C425.561859,268.643799 420.021027,273.703369 414.250580,278.479523 
	C408.927032,282.885803 406.919434,288.261475 407.062653,295.138428 
	C407.378296,310.295197 407.289001,325.464355 407.135132,340.626099 
	C406.890228,364.757141 391.885651,382.885590 368.367981,387.798859 
	C364.234650,388.662415 360.071014,388.222534 355.917419,388.300598 
	C353.136078,388.352844 352.686096,386.579132 352.690704,384.347870 
	C352.704865,377.516113 352.676300,370.684235 352.685638,363.852478 
	C352.695038,356.984558 352.706238,356.984528 359.530273,356.820679 
	C368.282562,356.610504 374.014008,352.025543 375.434113,343.960938 
	C375.719879,342.337921 375.640747,340.641602 375.642242,338.979004 
	C375.656067,323.649017 375.791870,308.317383 375.609833,292.989563 
	C375.439148,278.618713 380.709381,266.746857 391.153198,257.036499 
	C392.372345,255.902939 393.589569,254.765076 394.755585,253.578033 
	C395.086060,253.241684 395.232178,252.724258 395.464600,252.286499 
	C395.127625,250.194138 393.334900,249.355972 391.987488,248.206299 
	C381.200195,239.002029 375.812622,227.241226 375.687103,213.156021 
	C375.538635,196.494308 375.442291,179.826752 375.723083,163.168457 
	C375.918488,151.575424 369.132355,144.140930 358.244934,145.176743 
	C354.280273,145.553940 352.470795,144.094193 352.620422,139.819138 
	C352.876678,132.496368 352.761902,125.157280 352.660767,117.827011 
	C352.620667,114.919785 353.630310,113.778847 356.688629,113.602798 
	C383.037048,112.086052 403.576263,129.462967 406.510895,155.554352 
	C407.522858,164.551468 406.836517,173.523071 407.162231,183.000000 
z"/>
<path fill="#000000" opacity="1.000000" stroke="none" 
	d="
M296.032654,180.000015 
	C296.042023,217.986816 296.107635,255.473740 296.032928,292.960388 
	C296.002960,308.000885 292.946533,321.984680 281.779114,333.234222 
	C270.511902,344.584229 256.479462,348.392548 241.231125,348.018097 
	C219.961365,347.495789 203.219955,338.937042 194.180038,318.584412 
	C191.248993,311.985413 189.968338,304.959656 189.659058,297.739532 
	C189.529800,294.722076 190.758453,293.571106 193.755646,293.640320 
	C199.417221,293.771118 205.085678,293.754913 210.748001,293.639221 
	C213.747559,293.577942 215.207352,294.447266 215.472900,297.801422 
	C215.853226,302.605042 217.136490,307.276764 219.421722,311.625977 
	C224.691635,321.655731 233.856155,326.031616 246.785172,324.583191 
	C257.948029,323.332642 265.977020,316.294342 268.597961,305.587189 
	C269.638611,301.335999 269.742371,297.038025 269.739960,292.702576 
	C269.715790,249.217865 269.717957,205.733170 269.712830,162.248459 
	C269.712006,155.083206 269.712189,155.075623 276.870941,155.054749 
	C281.036102,155.042587 285.201477,155.040192 289.366516,155.067825 
	C295.540497,155.108795 295.981384,155.510056 296.028534,161.507034 
	C296.075684,167.504333 296.034821,173.502335 296.032654,180.000015 
z"/>
</svg>